<svg width="240" height="631" viewBox="0 0 240 631" fill="none" xmlns="http://www.w3.org/2000/svg">
<path fill-rule="evenodd" clip-rule="evenodd" d="M64.7802 2.40306C127.33 8.01517 196.078 32.4641 227.613 85.1315C257.701 135.384 218.444 196.747 215.901 254.799C214.477 287.311 214.331 317.534 216.009 350.035C219.058 409.062 258.088 470.172 229.726 522.488C198.223 580.601 131.121 642.173 64.7802 628.995C-4.94958 615.143 -9.14235 516.155 -57.4163 465.447C-91.6894 429.446 -156.795 423.659 -174.411 377.742C-192.143 331.525 -153.319 284.909 -145.369 236.206C-135.239 174.154 -164.103 101.171 -121.53 53.8056C-78.047 5.42861 -1.12726 -3.51032 64.7802 2.40306Z" fill="#FFADED"/>
</svg>
