<svg width="300" height="675" viewBox="0 0 300 675" fill="none" xmlns="http://www.w3.org/2000/svg">
<path fill-rule="evenodd" clip-rule="evenodd" d="M0.10909 342.033C-2.42367 294.312 39.7939 256.64 59.3566 211.969C88.7511 144.848 72.0676 51.5347 143.378 14.8851C212.747 -20.7665 303.427 18.9132 376.142 49.1597C441.647 76.4068 508.535 115.898 530.424 175.879C550.773 231.643 500.083 285.45 483.018 342.033C471.293 380.908 466.569 419.117 446.178 455.211C421.457 498.968 396.41 541.87 352.754 572.606C290.112 616.71 217.434 696.762 143.778 668.116C66.9048 638.219 102.745 531.851 72.7167 463.696C53.4546 419.977 2.5898 388.774 0.10909 342.033Z" fill="#98D2EB"/>
</svg>
